<?xml version="1.0" encoding="UTF-8" standalone="no"?>
<svg
   xmlns:dc="http://purl.org/dc/elements/1.1/"
   xmlns:cc="http://creativecommons.org/ns#"
   xmlns:rdf="http://www.w3.org/1999/02/22-rdf-syntax-ns#"
   xmlns:svg="http://www.w3.org/2000/svg"
   xmlns="http://www.w3.org/2000/svg"
   viewBox="0 0 252 144"
   id="svg2"
   height="144"
   width="252"
   version="1.1">
  <metadata
     id="metadata52">
    <rdf:RDF>
      <cc:Work
         rdf:about="">
        <dc:format>image/svg+xml</dc:format>
        <dc:type
           rdf:resource="http://purl.org/dc/dcmitype/StillImage" />
      </cc:Work>
    </rdf:RDF>
  </metadata>
  <defs
     id="defs50" />
  <path
     id="path4"
     style="fill:#7d3931;fill-rule:evenodd"
     d="m 93.801,36.1934 56.3611,-9.69 q -4.1095,0.7065 -3.4029,4.8159 l 6.6233,38.5242 q 0.7066,4.1094 4.816,3.4029 l -56.3611,9.69 q 4.1094,-0.7065 3.4029,-4.8159 L 98.6169,39.5963 Q 97.9104,35.4869 93.801,36.1934 Z" />
  <path
     id="path6"
     style="fill:#ffffff;fill-rule:evenodd"
     d="M 96.4973,47.1858 138.8606,27.12 q -3.0888,1.4631 -1.6257,4.5519 l 13.7154,28.9563 q 1.463,3.0889 4.5518,1.6258 l -42.3633,20.0658 q 3.0888,-1.4631 1.6257,-4.5519 L 101.0491,48.8115 q -1.463,-3.0888 -4.5518,-1.6257 z" />
  <path
     id="path8"
     style="fill:#f07c00;fill-rule:evenodd"
     d="m 117.9215,65.573 0.1224,0 c 0.3783,0 0.5941,-0.612 1.3463,-0.612 l 0.1224,0 c 1.3728,0 2.7505,4.0392 6.3647,4.0392 3.8616,0 5.265,-4.0392 6.3647,-4.0392 l 0.3672,0 c 0.693,0 0.924,0.612 1.3463,0.612 0.6979,0 0.9249,-4.4178 1.1747,-5.3124 0.4534,-1.6238 0.6343,-3.897 0.9355,-5.6739 0.2823,-1.6657 0.5988,-3.7891 0.9594,-5.5277 0.2526,-1.2177 0.8472,-4.5639 0.8472,-5.7623 0.1479,-0.2209 0.2448,-0.2152 0.2448,-0.4896 l 0,-0.3672 -8.6903,0 0,18.1148 c 0,1.3484 -2.0609,2.6928 -3.4271,2.6928 -1.4719,0 -3.436,-1.215 -3.4303,-2.6896 0.008,-2.041 0.003,-4.0821 0.003,-6.123 0,-2.04 0,-4.08 0,-6.1199 0,-1.02 0,-2.04 0,-3.06 0,-0.6596 0.267,-2.8151 -0.3672,-2.8151 l -8.323,0 c 0.0353,1.5877 0.6116,4.1441 0.8828,5.8491 0.2876,1.8084 0.6878,3.881 1.0292,5.825 0.3369,1.9188 0.4774,4.0264 0.93,5.8018 0.2035,0.798 0.4516,5.6572 1.1971,5.6572 z" />
  <path
     id="path10"
     style="fill:#f07c00;fill-rule:evenodd"
     d="m 124.1638,51.6197 -0.2626,0.3525 0.1258,0.0259 -0.8424,8.067 c -0.0738,0.7078 0.7725,1.3194 1.3179,1.4972 1.3632,0.4444 1.0266,0.2164 2.5133,0.2616 l 1.5543,-1.2692 2e-4,-2.0807 -0.2273,-3.4419 -0.2625,-0.3525 c 0,-2.8375 -0.6111,-6.7867 -0.9862,-9.54 -0.3474,-2.5502 -0.9722,-7.0701 -0.9722,-9.6763 -0.4895,0.1306 -0.4458,1.1054 -0.4905,1.7126 -0.063,0.8529 -0.2342,1.6142 -0.2498,2.0757 -0.0543,1.5997 -0.1232,2.708 -0.2379,4.2909 -0.1759,2.4291 -0.9801,5.6862 -0.9801,8.0772 z" />
  <path
     id="path12"
     style="fill:#f07c00;fill-rule:evenodd"
     d="m 125.9469,69.862 a 2.0573,2.0573 0 0 1 2.0573,2.0573 2.0573,2.0573 0 1 1 -2.0573,-2.0573 z" />
  <path
     id="path14"
     style="fill:#7d3931;fill-rule:evenodd"
     d="m 0,87.4142 0,3.7996 45.9006,0 0,-3.7996 -45.9006,0 z" />
  <path
     id="path16"
     style="fill:#7d3931;fill-rule:evenodd"
     d="m 201.7913,98.5374 50.2087,0 0,7.4732 -51.1364,0 0.9277,-7.4732 z" />
  <path
     id="path18"
     style="fill:#7d3931;fill-rule:evenodd"
     d="m 74.0826,83.4284 22.1794,3.3147 c 0.8001,0.1196 1.2992,1.2581 1.1091,2.53 l -2.7146,18.1637 c -0.1901,1.2719 -1.0002,2.2148 -1.8003,2.0952 l -22.1794,-3.3148 c -0.8002,-0.1195 -1.2995,-1.2581 -1.1094,-2.53 l 2.7145,-18.1637 c 0.1901,-1.2719 1.0006,-2.2147 1.8007,-2.0951 z m 1.0887,1.5138 19.6069,2.9302 c 0.7074,0.1057 1.1485,1.1123 0.9805,2.2365 l -2.3998,16.0571 c -0.168,1.1242 -0.8841,1.9579 -1.5915,1.8522 l -19.6069,-2.9303 c -0.7073,-0.1057 -1.1487,-1.1123 -0.9807,-2.2366 l 2.3998,-16.0571 c 0.168,-1.1242 0.8844,-1.9578 1.5917,-1.852 z" />
  <path
     id="path20"
     style="fill:#f07c00;fill-rule:evenodd"
     d="m 84.9212,100.0661 -5.6118,0 -0.6681,1.548 c -0.22,0.5162 -0.328,0.94 -0.328,1.2762 0,0.4478 0.18,0.7758 0.54,0.9839 0.2081,0.1281 0.728,0.2199 1.556,0.284 l 0,0.432 -5.2841,0 0,-0.432 c 0.5681,-0.0879 1.04,-0.324 1.404,-0.7121 0.3679,-0.3838 0.824,-1.184 1.3601,-2.3958 l 5.684,-12.6802 0.2239,0 5.728,13.032 c 0.5482,1.2362 0.9961,2.012 1.3482,2.332 0.2678,0.2441 0.644,0.3841 1.1279,0.4241 l 0,0.432 -7.6879,0 0,-0.432 0.3158,0 c 0.616,0 1.0522,-0.0879 1.3,-0.2599 0.172,-0.1242 0.2602,-0.3042 0.2602,-0.54 0,-0.1401 -0.0241,-0.2841 -0.072,-0.432 -0.0162,-0.072 -0.1321,-0.364 -0.3521,-0.8802 l -0.8441,-1.98 z m -0.4,-0.868 -2.3638,-5.472 -2.4401,5.472 4.8039,0 z" />
  <path
     id="path22"
     style="fill:#7d3931;fill-rule:evenodd"
     d="m 100.9343,83.4281 22.1794,3.3147 c 0.8002,0.1196 1.2993,1.2581 1.1092,2.53 l -2.7146,18.1637 c -0.1901,1.2719 -1.0003,2.2148 -1.8004,2.0952 L 97.5285,106.217 c -0.8001,-0.1196 -1.2995,-1.2582 -1.1094,-2.5301 l 2.7146,-18.1637 c 0.1901,-1.2719 1.0005,-2.2147 1.8006,-2.0951 z m 1.0888,1.5138 19.6069,2.9302 c 0.7073,0.1058 1.1484,1.1123 0.9804,2.2366 l -2.3997,16.0571 c -0.168,1.1242 -0.8842,1.9578 -1.5915,1.8521 l -19.6069,-2.9303 c -0.7074,-0.1057 -1.1488,-1.1123 -0.9808,-2.2365 l 2.3998,-16.0571 c 0.168,-1.1242 0.8844,-1.9578 1.5918,-1.8521 z" />
  <path
     id="path24"
     style="fill:#f07c00;fill-rule:evenodd"
     d="m 117.8969,98.8458 -0.5959,5.58 -14.1122,0 0,-0.432 0.5281,0 c 0.46,0 0.8319,-0.0839 1.112,-0.248 0.2041,-0.108 0.36,-0.296 0.472,-0.5641 0.0839,-0.184 0.1281,-0.6758 0.1281,-1.476 l 0,-10.4519 c 0,-0.8122 -0.0442,-1.3201 -0.1281,-1.5239 -0.0879,-0.2041 -0.26,-0.3802 -0.5242,-0.5321 -0.2599,-0.1519 -0.6159,-0.2282 -1.0598,-0.2282 l -0.5281,0 0,-0.436 8.4761,0 0,0.436 -0.6919,0 c -0.4641,0 -0.832,0.0802 -1.116,0.2441 -0.2001,0.1119 -0.36,0.2959 -0.4802,0.5641 -0.0839,0.1879 -0.1279,0.68 -0.1279,1.476 l 0,10.1239 c 0,0.8121 0.048,1.332 0.1401,1.552 0.0958,0.2242 0.2758,0.392 0.5519,0.5 0.1959,0.072 0.6681,0.104 1.4159,0.104 l 1.3241,0 c 0.8441,0 1.548,-0.1479 2.112,-0.4439 0.5599,-0.2959 1.048,-0.7639 1.4559,-1.4079 0.4122,-0.6401 0.8002,-1.584 1.1682,-2.8361 l 0.4799,0 z" />
  <path
     id="path26"
     style="fill:#7d3931;fill-rule:evenodd"
     d="m 127.5182,83.4284 22.1794,3.3147 c 0.8001,0.1196 1.2992,1.2581 1.1091,2.53 l -2.7145,18.1637 c -0.1901,1.2719 -1.0003,2.2148 -1.8004,2.0952 l -22.1794,-3.3148 c -0.8001,-0.1195 -1.2995,-1.2581 -1.1094,-2.53 l 2.7146,-18.1637 c 0.1901,-1.2719 1.0005,-2.2147 1.8006,-2.0951 z m 1.0887,1.5138 19.607,2.9302 c 0.7073,0.1057 1.1484,1.1123 0.9804,2.2365 l -2.3998,16.0571 c -0.168,1.1242 -0.8841,1.9579 -1.5914,1.8522 l -19.607,-2.9303 c -0.7073,-0.1057 -1.1487,-1.1123 -0.9807,-2.2366 l 2.3998,-16.0571 c 0.168,-1.1242 0.8844,-1.9578 1.5917,-1.852 z" />
  <path
     id="path28"
     style="fill:#f07c00;fill-rule:evenodd"
     d="m 138.3565,100.0661 -5.6117,0 -0.6682,1.548 c -0.2199,0.5162 -0.3279,0.94 -0.3279,1.2762 0,0.4478 0.18,0.7758 0.54,0.9839 0.208,0.1281 0.7279,0.2199 1.5559,0.284 l 0,0.432 -5.2841,0 0,-0.432 c 0.5681,-0.0879 1.0401,-0.324 1.404,-0.7121 0.368,-0.3838 0.8241,-1.184 1.3601,-2.3958 l 5.684,-12.6802 0.224,0 5.7279,13.032 c 0.5483,1.2362 0.9961,2.012 1.3482,2.332 0.2679,0.2441 0.644,0.3841 1.1279,0.4241 l 0,0.432 -7.6878,0 0,-0.432 0.3157,0 c 0.616,0 1.0523,-0.0879 1.3,-0.2599 0.1721,-0.1242 0.2602,-0.3042 0.2602,-0.54 0,-0.1401 -0.0241,-0.2841 -0.072,-0.432 -0.0161,-0.072 -0.1321,-0.364 -0.352,-0.8802 l -0.8442,-1.98 z m -0.4,-0.868 -2.3638,-5.472 -2.44,5.472 4.8038,0 z" />
  <path
     id="path30"
     style="fill:#7d3931;fill-rule:evenodd"
     d="m 153.9827,83.4284 22.1795,3.3147 c 0.8001,0.1196 1.2992,1.2581 1.1091,2.53 l -2.7146,18.1637 c -0.1901,1.2719 -1.0003,2.2148 -1.8004,2.0952 l -22.1794,-3.3148 c -0.8001,-0.1195 -1.2995,-1.2581 -1.1094,-2.53 l 2.7146,-18.1637 c 0.1901,-1.2719 1.0005,-2.2147 1.8006,-2.0951 z m 1.0888,1.5138 19.6069,2.9302 c 0.7073,0.1057 1.1484,1.1123 0.9804,2.2365 l -2.3997,16.0571 c -0.168,1.1242 -0.8842,1.9579 -1.5915,1.8522 l -19.6069,-2.9303 c -0.7073,-0.1057 -1.1488,-1.1123 -0.9807,-2.2366 l 2.3997,-16.0571 c 0.168,-1.1242 0.8845,-1.9578 1.5918,-1.852 z" />
  <path
     id="path32"
     style="fill:#f07c00;fill-rule:evenodd"
     d="m 160.8514,88.7879 0,-0.436 8.4481,0 0,0.436 -0.5162,0 c -0.468,0 -0.8439,0.0802 -1.1239,0.2441 -0.1959,0.1119 -0.3521,0.2959 -0.468,0.5641 -0.0879,0.1879 -0.1321,0.68 -0.1321,1.476 l 0,7.7799 c 0,1.5242 -0.152,2.632 -0.4558,3.3242 -0.3042,0.692 -0.8442,1.268 -1.624,1.736 -0.7761,0.464 -1.7121,0.6959 -2.804,0.6959 -1.3363,0 -2.4163,-0.3521 -3.24,-1.0559 -0.828,-0.7042 -1.2402,-1.48 -1.2402,-2.3321 0,-0.5479 0.1681,-0.9882 0.504,-1.328 0.3359,-0.3399 0.7481,-0.512 1.2319,-0.512 0.4763,0 0.8762,0.152 1.2002,0.4558 0.324,0.3082 0.4879,0.6801 0.4879,1.1282 0,0.216 -0.0281,0.4079 -0.0839,0.5721 -0.0281,0.0799 -0.152,0.2758 -0.368,0.5918 -0.216,0.3161 -0.32,0.54 -0.32,0.6761 0,0.2001 0.1001,0.3759 0.3039,0.5241 0.2959,0.22 0.684,0.332 1.1602,0.332 0.3359,0 0.612,-0.0882 0.832,-0.26 0.216,-0.172 0.3719,-0.4402 0.464,-0.8042 0.0879,-0.36 0.1318,-1.3719 0.1318,-3.0279 l 0,-8.496 c 0,-0.8122 -0.0439,-1.3201 -0.1318,-1.5239 -0.0921,-0.2041 -0.2682,-0.3802 -0.5281,-0.5321 -0.2639,-0.1519 -0.616,-0.2282 -1.0602,-0.2282 l -0.6678,0 z" />
  <path
     id="path34"
     style="fill:#7d3931;fill-rule:evenodd"
     d="m 180.7444,83.4279 22.182,3.297 c 0.8002,0.1189 1.3003,1.257 1.1112,2.5291 l -2.7,18.1659 c -0.1891,1.2721 -0.9985,2.2155 -1.7987,2.0966 l -22.1821,-3.2969 c -0.8002,-0.119 -1.3005,-1.2571 -1.1114,-2.5292 l 2.7,-18.1659 c 0.1891,-1.2721 0.9988,-2.2155 1.799,-2.0966 z m 1.0899,1.513 19.6093,2.9145 c 0.7074,0.1052 1.1493,1.1114 0.9822,2.2357 l -2.3869,16.0591 c -0.1671,1.1243 -0.8826,1.9585 -1.59,1.8534 l -19.6092,-2.9146 c -0.7074,-0.1051 -1.1496,-1.1114 -0.9825,-2.2357 l 2.3868,-16.0591 c 0.1672,-1.1243 0.8829,-1.9585 1.5903,-1.8533 z" />
  <path
     id="path36"
     style="fill:#f07c00;fill-rule:evenodd"
     d="m 194.5355,103.9861 0,0.432 -8.3081,0 0,-0.432 0.5281,0 c 0.4601,0 0.832,-0.0839 1.1121,-0.248 0.2041,-0.108 0.36,-0.2959 0.468,-0.5641 0.0878,-0.184 0.1321,-0.6758 0.1321,-1.476 l 0,-10.4519 c 0,-0.8121 -0.0443,-1.3201 -0.1321,-1.5239 -0.0839,-0.2041 -0.256,-0.3801 -0.5202,-0.5321 -0.2599,-0.1519 -0.616,-0.2281 -1.0599,-0.2281 l -0.5281,0 0,-0.436 8.3081,0 0,0.436 -0.5278,0 c -0.4601,0 -0.8323,0.0802 -1.112,0.244 -0.2041,0.112 -0.364,0.296 -0.4802,0.5641 -0.0839,0.1879 -0.1279,0.68 -0.1279,1.476 l 0,10.4519 c 0,0.8121 0.044,1.3201 0.1318,1.5242 0.0922,0.2038 0.2682,0.3798 0.5281,0.5321 0.2639,0.1559 0.616,0.2318 1.0602,0.2318 l 0.5278,0 z" />
  <path
     id="path38"
     style="fill:#7d3931;fill-rule:evenodd"
     d="m 47.2963,83.4281 22.1794,3.3147 c 0.8001,0.1196 1.2992,1.2581 1.1091,2.53 l -2.7145,18.1637 c -0.1901,1.2719 -1.0003,2.2148 -1.8004,2.0952 L 43.8905,106.217 c -0.8001,-0.1196 -1.2995,-1.2582 -1.1094,-2.5301 l 2.7146,-18.1637 c 0.1901,-1.2719 1.0005,-2.2147 1.8006,-2.0951 z m 1.0888,1.5138 19.6069,2.9302 c 0.7073,0.1058 1.1484,1.1123 0.9804,2.2366 l -2.3997,16.0571 c -0.1681,1.1242 -0.8842,1.9578 -1.5915,1.8521 l -19.6069,-2.9303 c -0.7074,-0.1057 -1.1488,-1.1123 -0.9808,-2.2365 L 46.7933,86.794 c 0.168,-1.1242 0.8844,-1.9578 1.5918,-1.8521 z" />
  <path
     id="path40"
     style="fill:#f07c00;fill-rule:evenodd"
     d="m 59.777,96.0018 c 1.508,0.3481 2.5679,0.7758 3.1759,1.2759 0.876,0.712 1.3119,1.6322 1.3119,2.764 0,1.196 -0.4799,2.1841 -1.44,2.9642 -1.1798,0.9479 -2.8959,1.4199 -5.144,1.4199 l -8.0759,0 0,-0.432 c 0.7359,0 1.2319,-0.068 1.4961,-0.2081 0.2599,-0.136 0.4439,-0.3118 0.5479,-0.532 0.108,-0.22 0.1599,-0.756 0.1599,-1.6158 l 0,-10.3121 c 0,-0.8601 -0.0519,-1.4001 -0.1599,-1.624 -0.104,-0.2239 -0.2919,-0.4 -0.5561,-0.5321 -0.2639,-0.136 -0.76,-0.2001 -1.4879,-0.2001 l 0,-0.436 7.6161,0 c 1.8199,0 3.1119,0.1642 3.8679,0.4882 0.76,0.324 1.3561,0.8078 1.792,1.4519 0.44,0.644 0.656,1.332 0.656,2.0559 0,0.7682 -0.2758,1.4483 -0.832,2.0481 -0.5519,0.5961 -1.5279,1.072 -2.9279,1.4241 z m -4.2641,-0.32 c 1.108,0 1.9241,-0.1239 2.4519,-0.3719 0.5281,-0.252 0.9321,-0.6041 1.2161,-1.0562 0.28,-0.4519 0.4201,-1.0318 0.4201,-1.736 0,-0.6998 -0.1401,-1.2758 -0.4161,-1.728 -0.2759,-0.4478 -0.6719,-0.788 -1.188,-1.0238 -0.516,-0.2362 -1.344,-0.3481 -2.484,-0.3402 l 0,6.2561 z m 0,0.9158 0,5.0962 -0.012,0.5879 c 0,0.4201 0.1041,0.7401 0.3201,0.9561 0.216,0.212 0.532,0.32 0.9558,0.32 0.6242,0 1.2002,-0.136 1.728,-0.4161 0.5281,-0.2758 0.9321,-0.68 1.2121,-1.2078 0.284,-0.5242 0.4241,-1.1121 0.4241,-1.7601 0,-0.7441 -0.1721,-1.4119 -0.5162,-2.0001 -0.3439,-0.5879 -0.8158,-1.0001 -1.4199,-1.2359 -0.6001,-0.2361 -1.5001,-0.3481 -2.692,-0.3402 z" />
  <g
     id="g42">
    <path
       id="path44"
       style="fill:#7d3931;fill-rule:evenodd"
       d="m 62.7378,120.0997 c -0.0397,0.1987 -0.0899,0.4773 -0.1468,0.8337 -0.0573,0.3563 -0.0953,0.6329 -0.116,0.8282 -0.7231,0.1058 -1.3683,0.1576 -1.9355,0.1576 -0.5482,0 -1.0567,-0.0691 -1.529,-0.2058 -0.4705,-0.1366 -0.9028,-0.3617 -1.2971,-0.6729 -0.3926,-0.3129 -0.6747,-0.6797 -0.8425,-1.1018 -0.1695,-0.4238 -0.2542,-0.8961 -0.2542,-1.4199 0,-0.6106 0.1142,-1.1608 0.3424,-1.6486 0.2285,-0.4876 0.5553,-0.8958 0.9825,-1.2209 0.4272,-0.3271 0.896,-0.5587 1.4062,-0.699 0.5103,-0.1401 1.0361,-0.2109 1.5809,-0.2109 0.4998,0 1.1174,0.064 1.8542,0.1919 l 0.0105,0.4255 c 0.0068,0.1868 0.0172,0.3909 0.0292,0.6142 l 0.0365,0.5777 c -0.3946,-0.0952 -0.7143,-0.1593 -0.9601,-0.1939 -0.2455,-0.0328 -0.4722,-0.0501 -0.6814,-0.0501 -0.455,0 -0.8666,0.0918 -1.2317,0.2732 -0.3631,0.1834 -0.6502,0.4482 -0.8594,0.7957 -0.2092,0.3478 -0.315,0.7333 -0.315,1.1554 0,0.3858 0.0885,0.7143 0.2631,0.991 0.1763,0.2752 0.4133,0.4878 0.7126,0.6384 0.2991,0.1505 0.6676,0.2247 1.1069,0.2247 0.2387,0 0.4998,-0.0189 0.7818,-0.0586 0.2821,-0.038 0.6364,-0.1143 1.0619,-0.2248 z m 6.9126,0.1573 c -0.0434,0.2024 -0.1282,0.6936 -0.2526,1.4701 -0.3926,0.0779 -0.7214,0.1281 -0.9876,0.1539 -0.2682,0.0261 -0.538,0.0382 -0.8113,0.0382 -0.4014,0 -0.7716,-0.0277 -1.1106,-0.083 -0.337,-0.0573 -0.6279,-0.1556 -0.8733,-0.2976 -0.2455,-0.1418 -0.4496,-0.3181 -0.6157,-0.5293 -0.1661,-0.2109 -0.2906,-0.4617 -0.377,-0.7523 -0.0868,-0.2905 -0.1299,-0.5899 -0.1299,-0.896 0,-0.4323 0.0865,-0.8561 0.2577,-1.2697 0.1729,-0.4133 0.3943,-0.7367 0.6676,-0.9703 0.2715,-0.2333 0.5848,-0.3977 0.9394,-0.4963 0.3546,-0.0987 0.7177,-0.1471 1.0896,-0.1471 0.3858,0 0.7523,0.045 1.1018,0.1349 0.3493,0.0884 0.6469,0.2458 0.889,0.4689 0.2438,0.223 0.417,0.4739 0.5207,0.754 0.1021,0.2803 0.1539,0.5831 0.1539,0.9082 0,0.1919 -0.0227,0.4065 -0.0657,0.6435 l -3.5527,0.005 c -0.0034,0.0535 -0.0054,0.102 -0.0054,0.1471 0,0.3631 0.1298,0.6313 0.3909,0.8042 0.2597,0.1712 0.5777,0.2576 0.9513,0.2576 0.2234,0 0.4777,-0.0258 0.7628,-0.0776 0.2855,-0.0539 0.6384,-0.1421 1.0571,-0.2665 z m -3.117,-1.6398 1.6727,0 c 0.0034,-0.057 0.0051,-0.1072 0.0051,-0.1469 0,-0.1766 -0.0312,-0.3271 -0.0935,-0.4515 -0.0621,-0.1245 -0.1523,-0.2163 -0.2699,-0.2733 -0.1156,-0.057 -0.2472,-0.0864 -0.3926,-0.0864 -0.1003,0 -0.1987,0.0155 -0.2922,0.0484 -0.095,0.0312 -0.1798,0.0794 -0.256,0.1418 -0.076,0.0623 -0.14,0.1349 -0.1902,0.2145 -0.0502,0.0814 -0.0882,0.1608 -0.1125,0.237 -0.0224,0.076 -0.0465,0.1814 -0.0709,0.3164 z m 5.2276,3.1705 0.1574,-2.2501 0.0501,-1.2923 c 0.0034,-0.2316 0.0051,-0.4703 0.0051,-0.7144 0,-0.2455 -0.0034,-0.5516 -0.0102,-0.9167 0.4082,0.007 0.7334,0.0105 0.972,0.0105 0.2804,0 0.6038,-0.003 0.9686,-0.0105 l -0.0207,0.5726 c 0.1316,-0.1488 0.2387,-0.2594 0.3235,-0.3319 0.0847,-0.0729 0.1817,-0.1386 0.2888,-0.1973 0.1089,-0.0587 0.2214,-0.1038 0.3407,-0.1316 0.1177,-0.0294 0.2404,-0.043 0.3703,-0.043 0.121,0 0.2559,0.0173 0.4047,0.0501 0.0034,0.3683 0.0119,0.6727 0.0258,0.9131 l 0.0346,0.7801 c -0.1851,-0.0536 -0.3597,-0.0811 -0.5204,-0.0811 -0.2041,0 -0.379,0.0292 -0.5242,0.0882 -0.1471,0.0586 -0.2769,0.1485 -0.3908,0.2681 -0.1126,0.1211 -0.2024,0.2696 -0.2699,0.4496 -0.0675,0.178 -0.1159,0.4618 -0.142,0.8509 -0.0275,0.3875 -0.0414,0.832 -0.0414,1.332 0,0.1764 0.0068,0.3943 0.0207,0.6537 -0.3286,-0.007 -0.6571,-0.0105 -0.9876,-0.0105 -0.3285,0 -0.6798,0.004 -1.0551,0.0105 z m 5.9298,-3.6981 c 0.0641,-0.3336 0.1055,-0.5655 0.1211,-0.6916 0.0173,-0.1264 0.045,-0.3254 0.0813,-0.595 0.974,-0.2129 1.8094,-0.32 2.5098,-0.32 0.3977,0 0.7628,0.0447 1.0948,0.1349 0.3305,0.0881 0.5899,0.2333 0.775,0.4323 0.1868,0.199 0.2783,0.4844 0.2783,0.856 0,0.1905 -0.0241,0.616 -0.076,1.2768 -0.0501,0.6624 -0.0898,1.5307 -0.1159,2.6047 -0.3319,-0.007 -0.6607,-0.0105 -0.9893,-0.0105 -0.3183,0 -0.6556,0.004 -1.0136,0.0105 0.0484,-0.3719 0.102,-1.1381 0.161,-2.3003 -0.1282,0.0604 -0.2302,0.1037 -0.3028,0.1312 -0.0725,0.0278 -0.2007,0.0675 -0.3824,0.1211 -0.1831,0.0555 -0.3268,0.1003 -0.4289,0.1366 -0.1037,0.0383 -0.1936,0.0848 -0.2698,0.142 -0.076,0.0587 -0.1315,0.1177 -0.1624,0.178 -0.0329,0.0607 -0.0485,0.1282 -0.0485,0.2024 0,0.1143 0.0448,0.2129 0.1366,0.2943 0.0916,0.081 0.237,0.121 0.4357,0.121 0.0712,0 0.1471,-0.005 0.2285,-0.0173 0.0813,-0.0122 0.1919,-0.0416 0.3339,-0.0901 -0.0986,0.2613 -0.2146,0.6417 -0.3495,1.1418 -0.2906,0.0465 -0.5655,0.0708 -0.8269,0.0708 -0.4184,0 -0.7662,-0.0589 -1.0462,-0.1749 -0.2787,-0.1156 -0.493,-0.3041 -0.6435,-0.5655 -0.1505,-0.2593 -0.2248,-0.5204 -0.2248,-0.7801 0,-0.159 0.0275,-0.3146 0.0828,-0.4651 0.0572,-0.1522 0.1437,-0.3011 0.2613,-0.4462 0.1194,-0.1454 0.2577,-0.2699 0.4167,-0.3736 0.1593,-0.1021 0.3756,-0.199 0.6506,-0.2908 0.2766,-0.0916 0.6242,-0.1781 1.0479,-0.2594 0.1749,-0.0329 0.3374,-0.0692 0.4845,-0.1089 0.1471,-0.0379 0.2508,-0.0708 0.3129,-0.1003 0.0624,-0.0295 0.1143,-0.0624 0.1522,-0.1021 0.04,-0.0379 0.0675,-0.0779 0.0848,-0.121 0.0156,-0.0417 0.0244,-0.0864 0.0244,-0.1332 0,-0.1281 -0.0536,-0.2265 -0.1627,-0.296 -0.1072,-0.0691 -0.2665,-0.1037 -0.4757,-0.1037 -0.5811,0 -1.3005,0.1644 -2.1552,0.4912 z m 6.8137,3.6981 0.142,-2.4423 0.0811,-1.9094 0.0104,-0.8218 c 0.372,0.007 0.6988,0.0105 0.9825,0.0105 0.3218,0 0.633,-0.003 0.9375,-0.0105 l -0.0363,0.6747 c 0.1054,-0.135 0.1936,-0.2387 0.2664,-0.3113 0.0726,-0.0726 0.1608,-0.142 0.2662,-0.2075 0.1037,-0.0675 0.2129,-0.1193 0.3234,-0.1576 0.1126,-0.0397 0.237,-0.0709 0.3753,-0.0933 0.1384,-0.0243 0.2838,-0.0362 0.436,-0.0362 0.1729,0 0.3322,0.0136 0.4774,0.043 0.1454,0.0278 0.2698,0.0641 0.3736,0.1092 0.1054,0.0431 0.1973,0.0949 0.2749,0.1522 0.078,0.057 0.1454,0.1227 0.2041,0.1953 0.0607,0.0726 0.1281,0.1783 0.2058,0.3166 0.1488,-0.2162 0.3062,-0.3807 0.4706,-0.4929 0.1661,-0.1108 0.3546,-0.1922 0.5655,-0.2458 0.2112,-0.0518 0.4274,-0.0776 0.6505,-0.0776 0.294,0 0.5706,0.0413 0.832,0.1261 0.2594,0.0848 0.472,0.2319 0.6398,0.4394 0.1678,0.2075 0.2508,0.4756 0.2508,0.8078 0,0.1557 -0.0102,0.389 -0.0328,0.7039 -0.0224,0.3149 -0.0519,0.8544 -0.0916,1.6189 -0.038,0.7645 -0.059,1.3008 -0.0624,1.6086 -0.3112,-0.007 -0.6122,-0.0105 -0.9028,-0.0105 -0.3546,0 -0.7248,0.004 -1.114,0.0105 0.0346,-0.4289 0.0692,-0.9669 0.104,-1.6137 0.0363,-0.6469 0.0536,-1.0948 0.0536,-1.3457 0,-0.2179 -0.0261,-0.3823 -0.0763,-0.4895 -0.0501,-0.1088 -0.1159,-0.1817 -0.1953,-0.2214 -0.0796,-0.0397 -0.1661,-0.0589 -0.2613,-0.0589 -0.1004,0 -0.1885,0.0192 -0.2628,0.0555 -0.0813,0.0414 -0.1522,0.1055 -0.2129,0.1902 -0.081,0.1126 -0.1468,0.2526 -0.197,0.4238 -0.0416,0.1332 -0.0728,0.3356 -0.0969,0.6072 -0.0241,0.2766 -0.0414,0.6415 -0.0553,1.0947 l -0.04,1.3578 c -0.3614,-0.007 -0.6882,-0.0105 -0.9788,-0.0105 -0.2959,0 -0.6468,0.004 -1.0482,0.0105 0.0295,-0.301 0.0657,-0.8059 0.1054,-1.5151 0.04,-0.7092 0.0607,-1.1832 0.0607,-1.4236 0,-0.2024 -0.0207,-0.3546 -0.0607,-0.4566 -0.0397,-0.1004 -0.0966,-0.1817 -0.1695,-0.2421 -0.0725,-0.0607 -0.1695,-0.0918 -0.2905,-0.0918 -0.1316,0 -0.2455,0.0382 -0.3442,0.1159 -0.0969,0.0779 -0.1817,0.1902 -0.2508,0.3356 -0.0675,0.1454 -0.1177,0.3441 -0.1452,0.6001 -0.0294,0.2543 -0.0555,0.6435 -0.0796,1.1676 -0.0244,0.5241 -0.0397,1.0276 -0.0468,1.51 -0.4082,-0.007 -0.7401,-0.0105 -0.9927,-0.0105 -0.2803,0 -0.6296,0.004 -1.0448,0.0105 z m 10.9372,-5.8167 c 0.0209,-0.4014 0.0312,-0.7197 0.0312,-0.9533 0,-0.0674 -0.0018,-0.159 -0.0052,-0.2732 0.4082,0.007 0.7507,0.0105 1.0273,0.0105 0.3824,0 0.7161,-0.003 1.0032,-0.0105 -0.0102,0.1057 -0.0173,0.1922 -0.0207,0.263 l -0.0295,0.6296 c -0.0068,0.0933 -0.0102,0.2058 -0.0102,0.3339 -0.3339,-0.007 -0.6556,-0.0105 -0.9618,-0.0105 -0.3183,0 -0.6624,0.003 -1.0343,0.0105 z m -0.3201,5.8167 c 0.0468,-0.4116 0.0831,-0.7523 0.1075,-1.0188 0.0224,-0.2664 0.0448,-0.6071 0.0674,-1.0238 0.0224,-0.4153 0.0414,-0.8737 0.0587,-1.3768 0.0173,-0.5034 0.0295,-1.088 0.04,-1.7541 0.4391,0.007 0.7903,0.0105 1.0533,0.0105 0.2404,0 0.5845,-0.003 1.0341,-0.0105 -0.057,0.6384 -0.0983,1.1988 -0.1244,1.6832 -0.0241,0.4825 -0.0414,0.9944 -0.0485,1.5341 -0.0119,0.9598 -0.019,1.6121 -0.019,1.9562 -0.4031,-0.007 -0.7489,-0.0105 -1.0395,-0.0105 -0.2871,0 -0.6624,0.004 -1.1296,0.0105 z m 8.5763,-1.6154 c -0.0173,0.1349 -0.057,0.3838 -0.1211,0.7438 l -0.1312,0.811 c -0.5312,0.1281 -1.05,0.1921 -1.5568,0.1921 -0.3668,0 -0.6902,-0.0362 -0.9669,-0.1108 -0.3285,-0.0881 -0.6228,-0.2438 -0.8822,-0.4669 -0.2664,-0.2301 -0.4617,-0.5017 -0.5828,-0.8163 -0.1454,-0.3668 -0.2179,-0.7801 -0.2179,-1.2351 0,-0.4187 0.0708,-0.8235 0.2126,-1.2107 0.142,-0.3892 0.3512,-0.7092 0.6278,-0.9601 0.277,-0.2525 0.5848,-0.422 0.9221,-0.5068 0.3391,-0.0865 0.711,-0.1295 1.1209,-0.1295 0.2386,0 0.4807,0.0119 0.7245,0.0379 0.2424,0.0258 0.5431,0.0797 0.9011,0.1645 l 0.0105,0.1156 c 0.0105,0.123 0.0173,0.2458 0.0224,0.3736 0.005,0.1264 0.0156,0.3254 0.0329,0.5987 l 0.0312,0.4513 c -0.4825,-0.1678 -0.9097,-0.2526 -1.2816,-0.2526 -0.2664,0 -0.5017,0.0519 -0.7024,0.1539 -0.2007,0.1041 -0.3492,0.2526 -0.4462,0.4465 -0.0952,0.1936 -0.1434,0.4201 -0.1434,0.6763 0,0.2611 0.0431,0.4791 0.1295,0.6537 0.0848,0.1763 0.2231,0.3078 0.4116,0.396 0.1905,0.0884 0.398,0.1315 0.6245,0.1315 0.1142,0 0.2509,-0.0122 0.4065,-0.0346 0.1573,-0.0241 0.2939,-0.0501 0.4116,-0.0796 0.1159,-0.0275 0.2647,-0.076 0.4428,-0.1434 z m 1.8807,1.5185 c -0.0138,-0.1486 -0.0277,-0.3045 -0.0399,-0.4686 -0.0136,-0.1644 -0.0363,-0.3892 -0.0672,-0.6763 l -0.04,-0.3651 c 0.3288,0.1281 0.6106,0.225 0.8459,0.2871 0.237,0.0624 0.4549,0.0935 0.6556,0.0935 0.1642,0 0.2991,-0.0155 0.4028,-0.045 0.1021,-0.0312 0.1783,-0.0743 0.2251,-0.1333 0.0465,-0.0569 0.0709,-0.1159 0.0709,-0.1763 0,-0.0535 -0.0173,-0.1071 -0.0536,-0.159 -0.0346,-0.0538 -0.1159,-0.1247 -0.2407,-0.2163 -0.2766,-0.2024 -0.5204,-0.3858 -0.7316,-0.5519 -0.2126,-0.1658 -0.3699,-0.3129 -0.4773,-0.441 -0.1072,-0.1279 -0.1868,-0.2662 -0.2438,-0.415 -0.0553,-0.1489 -0.0831,-0.3028 -0.0831,-0.4618 0,-0.2804 0.0797,-0.5414 0.2404,-0.7852 0.161,-0.2424 0.398,-0.4187 0.7092,-0.5295 0.313,-0.1089 0.6937,-0.1641 1.1433,-0.1641 0.4688,0 1.0689,0.0603 1.7988,0.1814 l 0.0814,1.4252 c -0.4082,-0.1624 -0.8025,-0.2437 -1.1815,-0.2437 -0.2662,0 -0.4601,0.0277 -0.5794,0.0813 -0.1193,0.0536 -0.1797,0.1366 -0.1797,0.2472 0,0.0383 0.007,0.0728 0.0207,0.1074 0.0139,0.0329 0.038,0.0692 0.0725,0.1055 0.0363,0.038 0.0797,0.0759 0.1316,0.1142 0.0535,0.0397 0.1797,0.1296 0.3838,0.2716 0.2024,0.1417 0.3617,0.2576 0.4756,0.3492 0.1905,0.1488 0.3339,0.2871 0.4343,0.4133 0.0986,0.1264 0.1746,0.2613 0.2282,0.4048 0.0521,0.1437 0.0779,0.2959 0.0779,0.4532 0,0.2404 -0.0586,0.4601 -0.1746,0.6625 -0.1176,0.2007 -0.2922,0.3685 -0.5275,0.5034 -0.2353,0.135 -0.4896,0.2282 -0.7628,0.2818 -0.2733,0.0519 -0.5553,0.0779 -0.8459,0.0779 -0.1973,0 -0.4427,-0.0172 -0.7384,-0.0501 -0.2959,-0.0346 -0.6384,-0.0936 -1.031,-0.1783 z m 13.7047,-3.5768 c 0.3441,0.0102 0.6435,0.0156 0.8975,0.0156 0.2562,0 0.5414,-0.005 0.8563,-0.0156 0,0.1953 -0.007,0.3665 -0.0207,0.512 -0.0139,0.1451 -0.0383,0.3061 -0.0762,0.4807 -0.0363,0.1766 -0.0848,0.3441 -0.1418,0.5068 -0.0572,0.1628 -0.1125,0.3028 -0.1678,0.4187 -0.0536,0.1157 -0.1281,0.256 -0.2231,0.4184 0.218,0.2699 0.4238,0.512 0.6191,0.7282 0.1956,0.2163 0.3685,0.4204 0.5173,0.6089 -0.479,-0.007 -0.8648,-0.0105 -1.1554,-0.0105 -0.3892,0 -0.7577,0.004 -1.1052,0.0105 l -0.4014,-0.5017 c -0.1644,0.1074 -0.3061,0.1939 -0.4221,0.2579 -0.1176,0.0638 -0.261,0.1279 -0.4339,0.1885 -0.1713,0.0604 -0.3564,0.1072 -0.5519,0.1384 -0.1954,0.0329 -0.3943,0.0484 -0.5984,0.0484 -0.5191,0 -0.993,-0.0864 -1.4202,-0.2613 -0.4289,-0.1729 -0.7506,-0.4394 -0.9686,-0.7954 -0.218,-0.3563 -0.3268,-0.737 -0.3268,-1.1418 0,-0.4601 0.1332,-0.8734 0.3997,-1.2402 0.2678,-0.3648 0.7367,-0.7143 1.4076,-1.0445 -0.1278,-0.2197 -0.216,-0.4116 -0.2661,-0.576 -0.0485,-0.1644 -0.0729,-0.3184 -0.0729,-0.4635 0,-0.237 0.059,-0.4671 0.1783,-0.6885 0.1177,-0.2231 0.2906,-0.415 0.5154,-0.5743 0.2267,-0.1574 0.46,-0.2628 0.7007,-0.3164 0.2387,-0.0519 0.5136,-0.0779 0.8198,-0.0779 0.5414,0 1.1069,0.064 1.6985,0.1919 l 0.0312,1.3578 0.005,0.2129 c -0.237,-0.097 -0.4343,-0.1645 -0.5916,-0.199 -0.1574,-0.0363 -0.3028,-0.0536 -0.4377,-0.0536 -0.1658,0 -0.3129,0.0224 -0.4394,0.0692 -0.1261,0.045 -0.2214,0.1142 -0.2851,0.2091 -0.0641,0.0953 -0.097,0.1905 -0.097,0.2889 0,0.0607 0.009,0.1247 0.0278,0.1905 0.019,0.0655 0.057,0.1573 0.1176,0.2766 0.0587,0.1177 0.1469,0.2611 0.2628,0.4272 0.1159,0.1678 0.2146,0.2994 0.294,0.396 0.0796,0.0953 0.199,0.2336 0.358,0.4119 l 0.3997,0.472 c 0.0241,-0.0777 0.0396,-0.1418 0.0484,-0.1919 0.008,-0.0519 0.0173,-0.1384 0.0275,-0.2611 0.0105,-0.1247 0.0173,-0.2648 0.021,-0.4238 z m -1.3388,1.9908 c -0.1281,-0.161 -0.2922,-0.358 -0.4912,-0.5865 -0.199,-0.2299 -0.4065,-0.4808 -0.6228,-0.7506 -0.1123,0.0709 -0.1987,0.1281 -0.2611,0.1729 -0.0623,0.0434 -0.1193,0.0901 -0.1695,0.1386 -0.0502,0.0482 -0.0969,0.1089 -0.1383,0.1797 -0.0434,0.0709 -0.0746,0.1418 -0.0936,0.2112 -0.0207,0.0692 -0.0311,0.14 -0.0311,0.2143 0,0.1522 0.0416,0.2889 0.1247,0.4136 0.083,0.1227 0.1953,0.216 0.339,0.2783 0.1434,0.0624 0.3008,0.0933 0.474,0.0933 0.1244,0 0.2369,-0.0156 0.339,-0.0448 0.1,-0.0312 0.1885,-0.0691 0.261,-0.1142 0.0726,-0.0451 0.1628,-0.1143 0.2699,-0.2058 z m 7.8982,1.6829 0.1003,-1.2971 0.1316,-2.5342 0.0569,-1.7935 c 0.003,-0.1919 0.005,-0.3858 0.005,-0.5777 0,-0.1454 -0.002,-0.3841 -0.005,-0.7143 0.4445,0.0102 0.8025,0.0156 1.0741,0.0156 0.2596,0 0.6159,-0.009 1.0689,-0.0227 0.4533,-0.0156 0.8354,-0.0241 1.1503,-0.0241 0.4533,0 0.7886,0.0295 1.0066,0.0865 0.2163,0.0569 0.4136,0.1488 0.5899,0.2715 0.1746,0.1228 0.32,0.2682 0.436,0.4323 0.1139,0.1661 0.2004,0.3546 0.2576,0.5658 0.057,0.2109 0.0865,0.4272 0.0865,0.6469 0,0.4513 -0.1091,0.8665 -0.3285,1.2418 -0.2197,0.3736 -0.5296,0.6537 -0.929,0.8405 -0.3979,0.1851 -0.8458,0.2787 -1.3422,0.2787 -0.1817,0 -0.3926,-0.0207 -0.6329,-0.0607 -0.0278,-0.1556 -0.078,-0.3875 -0.1523,-0.6936 -0.0745,-0.3079 -0.1349,-0.5361 -0.1817,-0.6849 0.1489,0.0295 0.3045,0.0451 0.4652,0.0451 0.3424,0 0.595,-0.0814 0.7628,-0.2458 0.1678,-0.1641 0.2509,-0.3648 0.2509,-0.6001 0,-0.1159 -0.019,-0.218 -0.0553,-0.3061 -0.0383,-0.0899 -0.097,-0.1644 -0.1783,-0.2214 -0.0814,-0.057 -0.1695,-0.0953 -0.2682,-0.1108 -0.0983,-0.0173 -0.2092,-0.0258 -0.3336,-0.0258 -0.1227,0 -0.2492,0.003 -0.3807,0.0102 l -0.4255,0.0294 c -0.0431,0.6523 -0.0776,1.3768 -0.102,2.1742 -0.0431,1.4531 -0.0658,2.3247 -0.0658,2.6153 l 0,0.659 -1.0083,-0.0105 c -0.1417,0 -0.4929,0.004 -1.0533,0.0105 z m 7.8202,-5.8167 c 0.021,-0.4014 0.0312,-0.7197 0.0312,-0.9533 0,-0.0674 -0.002,-0.159 -0.005,-0.2732 0.4082,0.007 0.7506,0.0105 1.0273,0.0105 0.3823,0 0.716,-0.003 1.0031,-0.0105 -0.0102,0.1057 -0.0173,0.1922 -0.0207,0.263 l -0.0294,0.6296 c -0.007,0.0933 -0.0102,0.2058 -0.0102,0.3339 -0.334,-0.007 -0.6557,-0.0105 -0.9618,-0.0105 -0.3184,0 -0.6625,0.003 -1.0344,0.0105 z m -0.32,5.8167 c 0.0467,-0.4116 0.083,-0.7523 0.1074,-1.0188 0.0224,-0.2664 0.0448,-0.6071 0.0675,-1.0238 0.0224,-0.4153 0.0413,-0.8737 0.0586,-1.3768 0.0173,-0.5034 0.0295,-1.088 0.04,-1.7541 0.4391,0.007 0.7903,0.0105 1.0534,0.0105 0.2403,0 0.5845,-0.003 1.034,-0.0105 -0.0569,0.6384 -0.0983,1.1988 -0.1244,1.6832 -0.0241,0.4825 -0.0414,0.9944 -0.0485,1.5341 -0.0119,0.9598 -0.019,1.6121 -0.019,1.9562 -0.403,-0.007 -0.7489,-0.0105 -1.0394,-0.0105 -0.2872,0 -0.6625,0.004 -1.1296,0.0105 z m 4.1068,2.3715 c 0.0641,-0.692 0.1176,-1.3839 0.1627,-2.0721 0.0777,-1.1798 0.1315,-2.1691 0.159,-2.9665 0.0295,-0.7991 0.0434,-1.5914 0.0434,-2.3749 0.6866,-0.1037 1.2229,-0.1746 1.6121,-0.2092 0.3875,-0.0362 0.7764,-0.0535 1.1639,-0.0535 0.4861,0 0.934,0.0501 1.3422,0.1522 0.4099,0.1003 0.7387,0.28 0.9859,0.536 0.2491,0.2577 0.4342,0.5638 0.5604,0.9184 0.1247,0.3547 0.1868,0.7249 0.1868,1.1141 0,0.3546 -0.0502,0.6987 -0.1522,1.0309 -0.1004,0.332 -0.256,0.633 -0.4652,0.8994 -0.2092,0.2662 -0.4499,0.4635 -0.7214,0.5931 -0.2716,0.1281 -0.5757,0.1921 -0.9097,0.1921 -0.1644,0 -0.3373,-0.0155 -0.5136,-0.0484 -0.1766,-0.0312 -0.3461,-0.078 -0.5034,-0.1384 -0.1591,-0.0623 -0.2923,-0.1227 -0.3977,-0.1851 -0.1075,-0.0623 -0.2387,-0.1539 -0.398,-0.2715 l -0.057,1.4131 c -0.0244,0.6485 -0.0363,1.1398 -0.0363,1.4703 -0.3909,-0.007 -0.7265,-0.0105 -1.0085,-0.0105 -0.2421,0 -0.5933,0.003 -1.0534,0.0105 z m 2.3369,-6.1214 c -0.0278,0.1522 -0.0468,0.2769 -0.057,0.3736 -0.0105,0.0952 -0.0193,0.2248 -0.0295,0.3892 -0.0105,0.1644 -0.0156,0.2939 -0.0156,0.3926 0,0.2769 0.0431,0.5085 0.1279,0.697 0.0867,0.1868 0.2061,0.3322 0.36,0.436 0.1539,0.102 0.318,0.1539 0.4946,0.1539 0.1851,0 0.3563,-0.0536 0.5103,-0.159 0.1556,-0.1075 0.2783,-0.2665 0.3702,-0.4794 0.0915,-0.2126 0.1366,-0.4529 0.1366,-0.7194 0,-0.3614 -0.0952,-0.652 -0.2855,-0.8717 -0.1902,-0.2196 -0.4688,-0.3288 -0.8319,-0.3288 -0.2302,0 -0.4896,0.0383 -0.7801,0.116 z m 10.6361,2.2192 c -0.0433,0.2024 -0.1281,0.6936 -0.2525,1.4701 -0.3926,0.0779 -0.7214,0.1281 -0.9876,0.1539 -0.2682,0.0261 -0.538,0.0382 -0.8113,0.0382 -0.4014,0 -0.7716,-0.0277 -1.1106,-0.083 -0.337,-0.0573 -0.6279,-0.1556 -0.8734,-0.2976 -0.2454,-0.1418 -0.4495,-0.3181 -0.6156,-0.5293 -0.1662,-0.2109 -0.2906,-0.4617 -0.3771,-0.7523 -0.0867,-0.2905 -0.1298,-0.5899 -0.1298,-0.896 0,-0.4323 0.0865,-0.8561 0.2577,-1.2697 0.1729,-0.4133 0.3943,-0.7367 0.6675,-0.9703 0.2716,-0.2333 0.5848,-0.3977 0.9394,-0.4963 0.3547,-0.0987 0.7178,-0.1471 1.0897,-0.1471 0.3858,0 0.7523,0.045 1.1018,0.1349 0.3492,0.0884 0.6469,0.2458 0.889,0.4689 0.2437,0.223 0.4169,0.4739 0.5207,0.754 0.102,0.2803 0.1539,0.5831 0.1539,0.9082 0,0.1919 -0.0227,0.4065 -0.0658,0.6435 l -3.5526,0.005 c -0.003,0.0535 -0.005,0.102 -0.005,0.1471 0,0.3631 0.1298,0.6313 0.3909,0.8042 0.2596,0.1712 0.5777,0.2576 0.9513,0.2576 0.2234,0 0.4776,-0.0258 0.7628,-0.0776 0.2854,-0.0539 0.6384,-0.1421 1.057,-0.2665 z m -3.1169,-1.6398 1.6727,0 c 0.003,-0.057 0.005,-0.1072 0.005,-0.1469 0,-0.1766 -0.0312,-0.3271 -0.0936,-0.4515 -0.062,-0.1245 -0.1522,-0.2163 -0.2698,-0.2733 -0.1157,-0.057 -0.2472,-0.0864 -0.3926,-0.0864 -0.1004,0 -0.1987,0.0155 -0.2923,0.0484 -0.0949,0.0312 -0.1797,0.0794 -0.2559,0.1418 -0.076,0.0623 -0.1401,0.1349 -0.1902,0.2145 -0.0502,0.0814 -0.0882,0.1608 -0.1126,0.237 -0.0224,0.076 -0.0465,0.1814 -0.0708,0.3164 z m 7.9086,3.1705 c 0.0709,-0.6848 0.1194,-1.2367 0.1471,-1.6517 0.0397,-0.616 0.0794,-1.4599 0.116,-2.5359 0.038,-1.0758 0.057,-1.8006 0.057,-2.1722 l 0,-0.557 c 1.0153,0.007 1.9612,0.0102 2.8366,0.0102 0.8821,0 1.7297,-0.003 2.5444,-0.0102 -0.0536,0.7764 -0.0814,1.2849 -0.0814,1.5256 l -0.4411,-0.0156 -0.3546,-0.005 -0.3546,-0.005 -0.9981,0 c -0.1139,0 -0.4512,0.003 -1.0083,0.0105 l -0.0467,1.1795 0.7353,0.0156 0.8215,0 c 0.2369,0 0.5984,-0.005 1.0845,-0.0156 -0.0363,0.6384 -0.0553,1.1398 -0.0553,1.5015 -0.5451,-0.0176 -0.9479,-0.0261 -1.2126,-0.0261 -0.4462,0 -0.9324,0.009 -1.4599,0.0261 l -0.0502,1.823 -0.005,0.6797 0,0.2231 -1.0879,-0.0105 c -0.0847,0 -0.4807,0.004 -1.1866,0.0105 z m 7.5677,-5.8167 c 0.021,-0.4014 0.0312,-0.7197 0.0312,-0.9533 0,-0.0674 -0.002,-0.159 -0.005,-0.2732 0.4081,0.007 0.7506,0.0105 1.0272,0.0105 0.3824,0 0.7161,-0.003 1.0032,-0.0105 -0.0102,0.1057 -0.0173,0.1922 -0.0207,0.263 l -0.0295,0.6296 c -0.007,0.0933 -0.0102,0.2058 -0.0102,0.3339 -0.3339,-0.007 -0.6556,-0.0105 -0.9618,-0.0105 -0.3183,0 -0.6624,0.003 -1.0343,0.0105 z m -0.3201,5.8167 c 0.0468,-0.4116 0.0831,-0.7523 0.1075,-1.0188 0.0224,-0.2664 0.0448,-0.6071 0.0674,-1.0238 0.0224,-0.4153 0.0414,-0.8737 0.0587,-1.3768 0.0173,-0.5034 0.0295,-1.088 0.04,-1.7541 0.4391,0.007 0.7903,0.0105 1.0533,0.0105 0.2404,0 0.5845,-0.003 1.0341,-0.0105 -0.057,0.6384 -0.0983,1.1988 -0.1244,1.6832 -0.0241,0.4825 -0.0414,0.9944 -0.0485,1.5341 -0.0119,0.9598 -0.019,1.6121 -0.019,1.9562 -0.4031,-0.007 -0.7489,-0.0105 -1.0394,-0.0105 -0.2872,0 -0.6625,0.004 -1.1297,0.0105 z m 8.028,-1.4893 c -0.0603,0.2837 -0.1122,0.5604 -0.1573,0.8303 l -0.1108,0.6176 c -0.3336,0.0743 -0.595,0.1228 -0.7835,0.1418 -0.1868,0.0207 -0.3682,0.0311 -0.5448,0.0311 -0.2872,0 -0.5414,-0.0243 -0.7645,-0.0728 -0.2231,-0.0499 -0.4082,-0.14 -0.557,-0.2696 -0.1486,-0.1298 -0.2506,-0.2786 -0.3045,-0.4481 -0.0536,-0.1696 -0.081,-0.3476 -0.081,-0.5361 0,-0.0346 0.002,-0.0952 0.005,-0.18 0.003,-0.0864 0.0155,-0.2783 0.0345,-0.576 l 0.1126,-1.7521 -0.7906,0 c 0.0173,-0.2335 0.0329,-0.5414 0.0451,-0.9218 l 0.0156,-0.4722 0.8404,0 c 0.0207,-0.1557 0.0468,-0.4947 0.0763,-1.0188 l 0.8665,-0.1763 c 0.159,-0.0312 0.4964,-0.1092 1.0134,-0.2336 -0.0241,0.4428 -0.0397,0.9184 -0.0502,1.4287 l 1.1554,0 c -0.0275,0.7021 -0.0396,1.1675 -0.0396,1.394 l -1.1659,0 -0.0604,1.2663 c -0.007,0.1885 -0.0105,0.3112 -0.0105,0.3648 0,0.1627 0.0173,0.2976 0.0519,0.4048 0.0363,0.1088 0.0986,0.1868 0.1885,0.2336 0.0901,0.0464 0.1885,0.0708 0.2959,0.0708 0.0814,0 0.1661,-0.005 0.2543,-0.0173 0.0864,-0.0122 0.2421,-0.0484 0.4651,-0.1091 z m 5.4091,0 c -0.0604,0.2837 -0.1122,0.5604 -0.1573,0.8303 l -0.1108,0.6176 c -0.3337,0.0743 -0.595,0.1228 -0.7835,0.1418 -0.1868,0.0207 -0.3683,0.0311 -0.5449,0.0311 -0.2871,0 -0.5414,-0.0243 -0.7645,-0.0728 -0.223,-0.0499 -0.4081,-0.14 -0.557,-0.2696 -0.1485,-0.1298 -0.2505,-0.2786 -0.3044,-0.4481 -0.0536,-0.1696 -0.0811,-0.3476 -0.0811,-0.5361 0,-0.0346 0.002,-0.0952 0.005,-0.18 0.003,-0.0864 0.0156,-0.2783 0.0346,-0.576 l 0.1125,-1.7521 -0.7905,0 c 0.0173,-0.2335 0.0328,-0.5414 0.045,-0.9218 l 0.0156,-0.4722 0.8405,0 c 0.0207,-0.1557 0.0468,-0.4947 0.0762,-1.0188 l 0.8666,-0.1763 c 0.159,-0.0312 0.4963,-0.1092 1.0134,-0.2336 -0.0241,0.4428 -0.0397,0.9184 -0.0502,1.4287 l 1.1554,0 c -0.0275,0.7021 -0.0397,1.1675 -0.0397,1.394 l -1.1659,0 -0.0603,1.2663 c -0.007,0.1885 -0.0105,0.3112 -0.0105,0.3648 0,0.1627 0.0173,0.2976 0.0518,0.4048 0.0363,0.1088 0.0987,0.1868 0.1885,0.2336 0.0902,0.0464 0.1886,0.0708 0.296,0.0708 0.0813,0 0.1661,-0.005 0.2543,-0.0173 0.0864,-0.0122 0.242,-0.0484 0.4651,-0.1091 z m 1.929,-4.3274 c 0.021,-0.4014 0.0312,-0.7197 0.0312,-0.9533 0,-0.0674 -0.002,-0.159 -0.005,-0.2732 0.4082,0.007 0.7506,0.0105 1.0272,0.0105 0.3824,0 0.7161,-0.003 1.0032,-0.0105 -0.0102,0.1057 -0.0173,0.1922 -0.0207,0.263 l -0.0294,0.6296 c -0.007,0.0933 -0.0102,0.2058 -0.0102,0.3339 -0.334,-0.007 -0.6557,-0.0105 -0.9618,-0.0105 -0.3184,0 -0.6625,0.003 -1.0344,0.0105 z m -0.32,5.8167 c 0.0467,-0.4116 0.083,-0.7523 0.1074,-1.0188 0.0224,-0.2664 0.0448,-0.6071 0.0675,-1.0238 0.0224,-0.4153 0.0413,-0.8737 0.0586,-1.3768 0.0173,-0.5034 0.0295,-1.088 0.04,-1.7541 0.4391,0.007 0.7903,0.0105 1.0534,0.0105 0.2403,0 0.5845,-0.003 1.034,-0.0105 -0.0569,0.6384 -0.0983,1.1988 -0.1244,1.6832 -0.0241,0.4825 -0.0414,0.9944 -0.0485,1.5341 -0.0119,0.9598 -0.019,1.6121 -0.019,1.9562 -0.4031,-0.007 -0.7489,-0.0105 -1.0394,-0.0105 -0.2872,0 -0.6625,0.004 -1.1296,0.0105 z" />
    <path
       id="path46"
       style="fill:#7d3931;fill-rule:evenodd"
       d="m 181.7169,121.7877 c 0.0987,-0.7662 0.1732,-1.6137 0.2251,-2.541 0.0536,-0.9269 0.0848,-1.8056 0.095,-2.6325 0.4048,0.007 0.7543,0.0105 1.0482,0.0105 0.3408,0 0.6676,-0.003 0.9825,-0.0105 l -0.0502,0.6885 c 0.1106,-0.1244 0.2075,-0.223 0.2889,-0.2956 0.0813,-0.0729 0.1814,-0.1437 0.3007,-0.2129 0.1197,-0.0692 0.2475,-0.1261 0.3824,-0.1695 0.135,-0.0434 0.2838,-0.078 0.4445,-0.1038 0.1593,-0.026 0.3269,-0.0379 0.5034,-0.0379 0.2438,0 0.4808,0.0258 0.7127,0.0776 0.2299,0.0536 0.4238,0.1282 0.5794,0.2231 0.1556,0.097 0.2854,0.2163 0.3909,0.36 0.1037,0.1434 0.1729,0.2991 0.2075,0.4635 0.0329,0.1661 0.0501,0.3373 0.0501,0.5119 0,0.1281 -0.0138,0.4048 -0.0396,0.8303 l -0.0865,1.8351 c -0.0156,0.3615 -0.0244,0.6954 -0.0244,1.0032 -0.3424,-0.007 -0.6607,-0.0105 -0.9581,-0.0105 -0.4031,0 -0.7699,0.004 -1.1001,0.0105 0.0312,-0.3078 0.0624,-0.7645 0.0969,-1.37 0.0329,-0.6069 0.0502,-1.0343 0.0502,-1.2798 0,-0.3824 -0.0745,-0.6486 -0.2214,-0.7991 -0.1454,-0.1505 -0.3305,-0.2248 -0.5536,-0.2248 -0.1953,0 -0.3804,0.0638 -0.5553,0.1919 -0.1729,0.1298 -0.3078,0.315 -0.4028,0.5604 -0.0935,0.2455 -0.161,0.6486 -0.199,1.209 -0.0397,0.5604 -0.0657,1.1313 -0.0796,1.7124 -0.3374,-0.007 -0.6676,-0.0105 -0.9876,-0.0105 -0.3374,0 -0.7039,0.004 -1.1002,0.0105 z m 8.4983,0.6296 c 0.436,0.1488 0.8198,0.2526 1.1503,0.3112 0.3319,0.059 0.6208,0.0885 0.8666,0.0885 0.1797,0 0.3407,-0.0193 0.4858,-0.059 0.1454,-0.038 0.2631,-0.0864 0.3512,-0.1434 0.0865,-0.0573 0.1627,-0.1298 0.2248,-0.218 0.0624,-0.0882 0.1109,-0.1868 0.1437,-0.294 0.0346,-0.1091 0.0587,-0.2335 0.0709,-0.3755 0.0139,-0.1418 0.0261,-0.3391 0.0363,-0.588 -0.1315,0.1177 -0.2455,0.2126 -0.3424,0.2838 -0.0953,0.0709 -0.2146,0.1383 -0.3564,0.2041 -0.1417,0.0655 -0.2976,0.1173 -0.4634,0.1519 -0.1678,0.0366 -0.3444,0.0539 -0.5292,0.0539 -0.4292,0 -0.8167,-0.1004 -1.1608,-0.2994 -0.3442,-0.1989 -0.6018,-0.4773 -0.7713,-0.8353 -0.1679,-0.358 -0.2526,-0.7455 -0.2526,-1.1605 0,-0.4896 0.0916,-0.9323 0.2733,-1.3269 0.1834,-0.396 0.4427,-0.7299 0.7834,-1.0032 0.3391,-0.2733 0.711,-0.4635 1.1175,-0.5672 0.4048,-0.1055 0.8648,-0.1573 1.3768,-0.1573 0.2939,0 0.6278,0.0173 1.0014,0.0535 0.3736,0.0346 0.8856,0.1123 1.5375,0.2299 l -0.121,1.6727 -0.1071,1.8335 c -0.007,0.1315 -0.008,0.2404 -0.008,0.3251 l -0.0417,1.6467 c -0.007,0.2092 -0.0312,0.4082 -0.076,0.5984 -0.0366,0.1712 -0.0986,0.3322 -0.1868,0.4807 -0.0884,0.1488 -0.1973,0.2787 -0.3254,0.3909 -0.1417,0.1213 -0.3008,0.218 -0.4757,0.2889 -0.1797,0.0728 -0.3909,0.1349 -0.6329,0.1817 -0.2645,0.0467 -0.5398,0.0708 -0.8266,0.0708 -0.1627,0 -0.3617,-0.007 -0.5987,-0.0224 -0.2353,-0.0155 -0.4773,-0.0379 -0.7262,-0.0691 -0.2492,-0.0295 -0.4638,-0.0624 -0.6435,-0.0953 -0.1817,-0.0345 -0.4102,-0.083 -0.6868,-0.1468 l -0.0363,-0.6695 c -0.003,-0.1279 -0.019,-0.4065 -0.0502,-0.8354 z m 3.4801,-4.3846 c -0.2092,-0.0397 -0.396,-0.0607 -0.5621,-0.0607 -0.3027,0 -0.5655,0.059 -0.7869,0.1749 -0.2197,0.1157 -0.3909,0.2905 -0.5139,0.5221 -0.1211,0.2302 -0.1814,0.4723 -0.1814,0.7215 0,0.1834 0.0328,0.3512 0.0966,0.5068 0.0641,0.1556 0.1695,0.2784 0.3184,0.3665 0.1488,0.0902 0.3061,0.1349 0.4705,0.1349 0.2438,0 0.4584,-0.0881 0.6486,-0.2627 0.1885,-0.1766 0.3183,-0.4153 0.3892,-0.7197 0.0708,-0.3045 0.1105,-0.7663 0.121,-1.3836 z" />
  </g>
</svg>
